<mxfile host="app.diagrams.net" modified="2024-06-06T20:46:51.592Z" agent="Mozilla/5.0 (Windows NT 10.0; Win64; x64) AppleWebKit/537.36 (KHTML, like Gecko) Chrome/125.0.0.0 Safari/537.36" etag="VIGYyHI3Ll69nZnLcS1d" version="24.5.1" type="google">
  <diagram id="R2lEEEUBdFMjLlhIrx00" name="Page-1">
    <mxGraphModel grid="1" page="1" gridSize="10" guides="1" tooltips="1" connect="1" arrows="1" fold="1" pageScale="1" pageWidth="850" pageHeight="1100" math="0" shadow="0" extFonts="Permanent Marker^https://fonts.googleapis.com/css?family=Permanent+Marker">
      <root>
        <mxCell id="0" />
        <mxCell id="1" parent="0" />
        <mxCell id="JjuWW0wzElk63Nm9k67z-5" value="" style="endArrow=none;html=1;rounded=0;" edge="1" parent="1">
          <mxGeometry width="50" height="50" relative="1" as="geometry">
            <mxPoint x="144" y="89.5" as="sourcePoint" />
            <mxPoint x="110" y="60" as="targetPoint" />
          </mxGeometry>
        </mxCell>
        <mxCell id="3QuLdcu_xD5159N9N08h-9" value="" style="endArrow=none;html=1;rounded=0;exitX=0.347;exitY=0.979;exitDx=0;exitDy=0;exitPerimeter=0;" edge="1" parent="1" source="JjuWW0wzElk63Nm9k67z-2">
          <mxGeometry width="50" height="50" relative="1" as="geometry">
            <mxPoint x="253" y="159.5" as="sourcePoint" />
            <mxPoint x="233" y="187.47" as="targetPoint" />
          </mxGeometry>
        </mxCell>
        <mxCell id="vOL8B1fKWGWSPSeHblaO-28" value="" style="endArrow=none;html=1;rounded=0;" edge="1" parent="1">
          <mxGeometry width="50" height="50" relative="1" as="geometry">
            <mxPoint x="281" y="140.75" as="sourcePoint" />
            <mxPoint x="306" y="140" as="targetPoint" />
          </mxGeometry>
        </mxCell>
        <mxCell id="JjuWW0wzElk63Nm9k67z-2" value="Inversor" style="rounded=0;whiteSpace=wrap;html=1;" vertex="1" parent="1">
          <mxGeometry x="135" y="89.5" width="150" height="70" as="geometry" />
        </mxCell>
        <mxCell id="JjuWW0wzElk63Nm9k67z-3" value="" style="endArrow=none;html=1;rounded=0;" edge="1" parent="1">
          <mxGeometry width="50" height="50" relative="1" as="geometry">
            <mxPoint x="166" y="87" as="sourcePoint" />
            <mxPoint x="166" y="57" as="targetPoint" />
          </mxGeometry>
        </mxCell>
        <mxCell id="JjuWW0wzElk63Nm9k67z-4" value="id_inversor&lt;div&gt;(cuit/cuil)&lt;/div&gt;" style="ellipse;whiteSpace=wrap;html=1;strokeColor=#000000;" vertex="1" parent="1">
          <mxGeometry x="142" y="11.5" width="80" height="49.5" as="geometry" />
        </mxCell>
        <mxCell id="JjuWW0wzElk63Nm9k67z-6" value="nombre" style="ellipse;whiteSpace=wrap;html=1;strokeColor=#000000;" vertex="1" parent="1">
          <mxGeometry x="65" y="18.5" width="70" height="38.5" as="geometry" />
        </mxCell>
        <mxCell id="sx9u9v67bv3BWFbQC-l_-1" value="" style="endArrow=none;html=1;rounded=0;exitX=0;exitY=0.25;exitDx=0;exitDy=0;entryX=1;entryY=0.5;entryDx=0;entryDy=0;" edge="1" parent="1" target="sx9u9v67bv3BWFbQC-l_-2">
          <mxGeometry width="50" height="50" relative="1" as="geometry">
            <mxPoint x="134" y="102.5" as="sourcePoint" />
            <mxPoint x="104" y="113.5" as="targetPoint" />
          </mxGeometry>
        </mxCell>
        <mxCell id="sx9u9v67bv3BWFbQC-l_-2" value="id_localidad" style="ellipse;whiteSpace=wrap;html=1;strokeColor=#000000;" vertex="1" parent="1">
          <mxGeometry x="15" y="52.5" width="80" height="40" as="geometry" />
        </mxCell>
        <mxCell id="JjuWW0wzElk63Nm9k67z-13" value="" style="endArrow=none;html=1;rounded=0;exitX=0;exitY=1;exitDx=0;exitDy=0;" edge="1" parent="1">
          <mxGeometry width="50" height="50" relative="1" as="geometry">
            <mxPoint x="135" y="137.5" as="sourcePoint" />
            <mxPoint x="90" y="140" as="targetPoint" />
          </mxGeometry>
        </mxCell>
        <mxCell id="JjuWW0wzElk63Nm9k67z-14" value="exposición&lt;div&gt;política&lt;/div&gt;" style="ellipse;whiteSpace=wrap;html=1;strokeColor=#000000;" vertex="1" parent="1">
          <mxGeometry x="16" y="128.5" width="80" height="40" as="geometry" />
        </mxCell>
        <mxCell id="3QuLdcu_xD5159N9N08h-4" value="Provincia" style="rounded=0;whiteSpace=wrap;html=1;" vertex="1" parent="1">
          <mxGeometry x="-250" y="88.5" width="90" height="60" as="geometry" />
        </mxCell>
        <mxCell id="3QuLdcu_xD5159N9N08h-7" value="" style="endArrow=none;html=1;rounded=0;" edge="1" parent="1" target="3QuLdcu_xD5159N9N08h-8">
          <mxGeometry width="50" height="50" relative="1" as="geometry">
            <mxPoint x="231" y="88" as="sourcePoint" />
            <mxPoint x="237" y="53" as="targetPoint" />
          </mxGeometry>
        </mxCell>
        <mxCell id="3QuLdcu_xD5159N9N08h-8" value="id_billetra" style="ellipse;whiteSpace=wrap;html=1;strokeColor=#000000;" vertex="1" parent="1">
          <mxGeometry x="201" y="-42" width="84" height="42.5" as="geometry" />
        </mxCell>
        <mxCell id="3QuLdcu_xD5159N9N08h-10" value="perfil&lt;span style=&quot;background-color: initial;&quot;&gt;_inversor&lt;/span&gt;" style="ellipse;whiteSpace=wrap;html=1;strokeColor=#000000;" vertex="1" parent="1">
          <mxGeometry x="185" y="183.75" width="80" height="40" as="geometry" />
        </mxCell>
        <mxCell id="3QuLdcu_xD5159N9N08h-17" value="" style="endArrow=none;html=1;rounded=0;exitX=0;exitY=0.25;exitDx=0;exitDy=0;" edge="1" parent="1" source="3QuLdcu_xD5159N9N08h-4">
          <mxGeometry width="50" height="50" relative="1" as="geometry">
            <mxPoint x="-270" y="81.5" as="sourcePoint" />
            <mxPoint x="-284.5" y="106.5" as="targetPoint" />
          </mxGeometry>
        </mxCell>
        <mxCell id="3QuLdcu_xD5159N9N08h-18" value="nombre_&lt;span style=&quot;background-color: initial;&quot;&gt;provincia&lt;/span&gt;" style="ellipse;whiteSpace=wrap;html=1;" vertex="1" parent="1">
          <mxGeometry x="-390" y="88.5" width="110" height="40" as="geometry" />
        </mxCell>
        <mxCell id="3QuLdcu_xD5159N9N08h-19" value="" style="endArrow=none;html=1;rounded=0;" edge="1" parent="1">
          <mxGeometry width="50" height="50" relative="1" as="geometry">
            <mxPoint x="-205.5" y="178.5" as="sourcePoint" />
            <mxPoint x="-205.5" y="148.5" as="targetPoint" />
          </mxGeometry>
        </mxCell>
        <mxCell id="3QuLdcu_xD5159N9N08h-20" value="id_provincia" style="ellipse;whiteSpace=wrap;html=1;" vertex="1" parent="1">
          <mxGeometry x="-244" y="8" width="80" height="40" as="geometry" />
        </mxCell>
        <mxCell id="3QuLdcu_xD5159N9N08h-21" value="Accion" style="rounded=0;whiteSpace=wrap;html=1;" vertex="1" parent="1">
          <mxGeometry x="620.5" y="689" width="100" height="70" as="geometry" />
        </mxCell>
        <mxCell id="3QuLdcu_xD5159N9N08h-26" value="" style="endArrow=none;html=1;rounded=0;" edge="1" parent="1">
          <mxGeometry width="50" height="50" relative="1" as="geometry">
            <mxPoint x="634.73" y="689" as="sourcePoint" />
            <mxPoint x="634.73" y="659" as="targetPoint" />
          </mxGeometry>
        </mxCell>
        <mxCell id="3QuLdcu_xD5159N9N08h-27" value="id_accion" style="ellipse;whiteSpace=wrap;html=1;" vertex="1" parent="1">
          <mxGeometry x="586.76" y="620" width="80" height="40" as="geometry" />
        </mxCell>
        <mxCell id="3QuLdcu_xD5159N9N08h-30" value="" style="endArrow=none;html=1;rounded=0;exitX=0;exitY=0;exitDx=0;exitDy=0;" edge="1" parent="1">
          <mxGeometry width="50" height="50" relative="1" as="geometry">
            <mxPoint x="620.5" y="694" as="sourcePoint" />
            <mxPoint x="593.5" y="664" as="targetPoint" />
          </mxGeometry>
        </mxCell>
        <mxCell id="3QuLdcu_xD5159N9N08h-31" value="nombre_&lt;div&gt;&lt;span style=&quot;background-color: initial;&quot;&gt;empresa&lt;/span&gt;&lt;/div&gt;" style="ellipse;whiteSpace=wrap;html=1;" vertex="1" parent="1">
          <mxGeometry x="528" y="640" width="69.5" height="40" as="geometry" />
        </mxCell>
        <mxCell id="3QuLdcu_xD5159N9N08h-32" value="" style="endArrow=none;html=1;rounded=0;exitX=0;exitY=0;exitDx=0;exitDy=0;entryX=1;entryY=0.5;entryDx=0;entryDy=0;" edge="1" parent="1" target="3QuLdcu_xD5159N9N08h-33">
          <mxGeometry width="50" height="50" relative="1" as="geometry">
            <mxPoint x="618.5" y="710" as="sourcePoint" />
            <mxPoint x="591.5" y="680" as="targetPoint" />
          </mxGeometry>
        </mxCell>
        <mxCell id="3QuLdcu_xD5159N9N08h-33" value="compra_&lt;span style=&quot;background-color: initial;&quot;&gt;diaria&lt;/span&gt;" style="ellipse;whiteSpace=wrap;html=1;" vertex="1" parent="1">
          <mxGeometry x="500.5" y="680" width="85" height="40" as="geometry" />
        </mxCell>
        <mxCell id="3QuLdcu_xD5159N9N08h-34" value="" style="endArrow=none;html=1;rounded=0;exitX=0;exitY=0.75;exitDx=0;exitDy=0;entryX=1;entryY=0.5;entryDx=0;entryDy=0;" edge="1" parent="1" source="3QuLdcu_xD5159N9N08h-21" target="3QuLdcu_xD5159N9N08h-35">
          <mxGeometry width="50" height="50" relative="1" as="geometry">
            <mxPoint x="618.5" y="759" as="sourcePoint" />
            <mxPoint x="591.5" y="729" as="targetPoint" />
          </mxGeometry>
        </mxCell>
        <mxCell id="3QuLdcu_xD5159N9N08h-35" value="venta_&lt;span style=&quot;background-color: initial;&quot;&gt;diaria&lt;/span&gt;" style="ellipse;whiteSpace=wrap;html=1;" vertex="1" parent="1">
          <mxGeometry x="505.5" y="729" width="80" height="40" as="geometry" />
        </mxCell>
        <mxCell id="3QuLdcu_xD5159N9N08h-36" value="" style="endArrow=none;html=1;rounded=0;exitX=0;exitY=1;exitDx=0;exitDy=0;" edge="1" parent="1" source="3QuLdcu_xD5159N9N08h-21" target="3QuLdcu_xD5159N9N08h-37">
          <mxGeometry width="50" height="50" relative="1" as="geometry">
            <mxPoint x="643" y="792" as="sourcePoint" />
            <mxPoint x="614" y="779" as="targetPoint" />
          </mxGeometry>
        </mxCell>
        <mxCell id="3QuLdcu_xD5159N9N08h-37" value="Precio_actual" style="ellipse;whiteSpace=wrap;html=1;" vertex="1" parent="1">
          <mxGeometry x="528" y="779" width="80" height="40" as="geometry" />
        </mxCell>
        <mxCell id="3QuLdcu_xD5159N9N08h-38" value="" style="endArrow=none;html=1;rounded=0;" edge="1" parent="1" target="3QuLdcu_xD5159N9N08h-39">
          <mxGeometry width="50" height="50" relative="1" as="geometry">
            <mxPoint x="651.5" y="759" as="sourcePoint" />
            <mxPoint x="697.5" y="769" as="targetPoint" />
          </mxGeometry>
        </mxCell>
        <mxCell id="3QuLdcu_xD5159N9N08h-39" value="Precio_actual" style="ellipse;whiteSpace=wrap;html=1;" vertex="1" parent="1">
          <mxGeometry x="620.5" y="789" width="80" height="40" as="geometry" />
        </mxCell>
        <mxCell id="3QuLdcu_xD5159N9N08h-42" value="" style="endArrow=none;html=1;rounded=0;exitX=1;exitY=1;exitDx=0;exitDy=0;" edge="1" parent="1" source="3QuLdcu_xD5159N9N08h-21" target="3QuLdcu_xD5159N9N08h-43">
          <mxGeometry width="50" height="50" relative="1" as="geometry">
            <mxPoint x="741.5" y="759" as="sourcePoint" />
            <mxPoint x="787.5" y="769" as="targetPoint" />
          </mxGeometry>
        </mxCell>
        <mxCell id="3QuLdcu_xD5159N9N08h-43" value="apertura" style="ellipse;whiteSpace=wrap;html=1;" vertex="1" parent="1">
          <mxGeometry x="710.5" y="789" width="59.5" height="31" as="geometry" />
        </mxCell>
        <mxCell id="3QuLdcu_xD5159N9N08h-44" value="" style="endArrow=none;html=1;rounded=0;" edge="1" parent="1" target="3QuLdcu_xD5159N9N08h-45">
          <mxGeometry width="50" height="50" relative="1" as="geometry">
            <mxPoint x="720.5" y="729" as="sourcePoint" />
            <mxPoint x="817.5" y="724" as="targetPoint" />
          </mxGeometry>
        </mxCell>
        <mxCell id="3QuLdcu_xD5159N9N08h-45" value="Min_Diario" style="ellipse;whiteSpace=wrap;html=1;" vertex="1" parent="1">
          <mxGeometry x="740.5" y="744" width="69.5" height="36" as="geometry" />
        </mxCell>
        <mxCell id="3QuLdcu_xD5159N9N08h-46" value="" style="endArrow=none;html=1;rounded=0;exitX=1;exitY=0.25;exitDx=0;exitDy=0;" edge="1" parent="1" source="3QuLdcu_xD5159N9N08h-21" target="3QuLdcu_xD5159N9N08h-47">
          <mxGeometry width="50" height="50" relative="1" as="geometry">
            <mxPoint x="730.5" y="684" as="sourcePoint" />
            <mxPoint x="827.5" y="679" as="targetPoint" />
          </mxGeometry>
        </mxCell>
        <mxCell id="3QuLdcu_xD5159N9N08h-47" value="Max_Diario" style="ellipse;whiteSpace=wrap;html=1;" vertex="1" parent="1">
          <mxGeometry x="750.5" y="699" width="69.5" height="41" as="geometry" />
        </mxCell>
        <mxCell id="3QuLdcu_xD5159N9N08h-50" value="" style="endArrow=none;html=1;rounded=0;exitX=1;exitY=0;exitDx=0;exitDy=0;" edge="1" parent="1" source="3QuLdcu_xD5159N9N08h-21" target="3QuLdcu_xD5159N9N08h-51">
          <mxGeometry width="50" height="50" relative="1" as="geometry">
            <mxPoint x="720.5" y="657" as="sourcePoint" />
            <mxPoint x="827.5" y="629" as="targetPoint" />
          </mxGeometry>
        </mxCell>
        <mxCell id="3QuLdcu_xD5159N9N08h-51" value="Precio_actual" style="ellipse;whiteSpace=wrap;html=1;" vertex="1" parent="1">
          <mxGeometry x="750.5" y="649" width="90" height="40" as="geometry" />
        </mxCell>
        <mxCell id="3QuLdcu_xD5159N9N08h-73" value="Billetera" style="rounded=0;whiteSpace=wrap;html=1;" vertex="1" parent="1">
          <mxGeometry x="258" y="381" width="100" height="70" as="geometry" />
        </mxCell>
        <mxCell id="3QuLdcu_xD5159N9N08h-74" value="" style="endArrow=none;html=1;rounded=0;" edge="1" parent="1">
          <mxGeometry width="50" height="50" relative="1" as="geometry">
            <mxPoint x="323" y="381" as="sourcePoint" />
            <mxPoint x="366.186044243319" y="311.1077893108055" as="targetPoint" />
          </mxGeometry>
        </mxCell>
        <mxCell id="3QuLdcu_xD5159N9N08h-75" value="id_billetera" style="ellipse;whiteSpace=wrap;html=1;" vertex="1" parent="1">
          <mxGeometry x="344" y="273" width="80" height="40" as="geometry" />
        </mxCell>
        <mxCell id="3QuLdcu_xD5159N9N08h-76" value="" style="endArrow=none;html=1;rounded=0;exitX=1;exitY=0.25;exitDx=0;exitDy=0;" edge="1" parent="1" source="3QuLdcu_xD5159N9N08h-73" target="3QuLdcu_xD5159N9N08h-77">
          <mxGeometry width="50" height="50" relative="1" as="geometry">
            <mxPoint x="392" y="395" as="sourcePoint" />
            <mxPoint x="465" y="332" as="targetPoint" />
          </mxGeometry>
        </mxCell>
        <mxCell id="3QuLdcu_xD5159N9N08h-77" value="cantidad_&lt;div&gt;accion&lt;/div&gt;" style="ellipse;whiteSpace=wrap;html=1;" vertex="1" parent="1">
          <mxGeometry x="358" y="330" width="72" height="38" as="geometry" />
        </mxCell>
        <mxCell id="3QuLdcu_xD5159N9N08h-78" value="" style="endArrow=none;html=1;rounded=0;exitX=1;exitY=0.5;exitDx=0;exitDy=0;" edge="1" parent="1">
          <mxGeometry width="50" height="50" relative="1" as="geometry">
            <mxPoint x="358" y="425.9999999999999" as="sourcePoint" />
            <mxPoint x="382.99132115598763" y="436.72709741214874" as="targetPoint" />
          </mxGeometry>
        </mxCell>
        <mxCell id="3QuLdcu_xD5159N9N08h-79" value="valor_&lt;div&gt;promedio&lt;/div&gt;" style="ellipse;whiteSpace=wrap;html=1;" vertex="1" parent="1">
          <mxGeometry x="374" y="420" width="76" height="38" as="geometry" />
        </mxCell>
        <mxCell id="3QuLdcu_xD5159N9N08h-82" value="" style="endArrow=none;html=1;rounded=0;exitX=0.296;exitY=1.048;exitDx=0;exitDy=0;exitPerimeter=0;" edge="1" parent="1">
          <mxGeometry width="50" height="50" relative="1" as="geometry">
            <mxPoint x="318.0000000000001" y="452.19" as="sourcePoint" />
            <mxPoint x="351.05672715954177" y="477.9984226381393" as="targetPoint" />
          </mxGeometry>
        </mxCell>
        <mxCell id="3QuLdcu_xD5159N9N08h-83" value="cantidad_&lt;div&gt;dinero&lt;/div&gt;" style="ellipse;whiteSpace=wrap;html=1;" vertex="1" parent="1">
          <mxGeometry x="318" y="477" width="80.7" height="36" as="geometry" />
        </mxCell>
        <mxCell id="3QuLdcu_xD5159N9N08h-84" value="" style="endArrow=none;html=1;rounded=0;" edge="1" parent="1">
          <mxGeometry width="50" height="50" relative="1" as="geometry">
            <mxPoint x="270.33873424954936" y="450.9999999999999" as="sourcePoint" />
            <mxPoint x="260" y="480" as="targetPoint" />
          </mxGeometry>
        </mxCell>
        <mxCell id="3QuLdcu_xD5159N9N08h-85" value="total_invertido" style="ellipse;whiteSpace=wrap;html=1;" vertex="1" parent="1">
          <mxGeometry x="198.3" y="478" width="86.7" height="35" as="geometry" />
        </mxCell>
        <mxCell id="3QuLdcu_xD5159N9N08h-89" value="ganancia" style="ellipse;whiteSpace=wrap;html=1;" vertex="1" parent="1">
          <mxGeometry x="166" y="408" width="68" height="36" as="geometry" />
        </mxCell>
        <mxCell id="3QuLdcu_xD5159N9N08h-90" value="" style="endArrow=none;html=1;rounded=0;exitX=0;exitY=0.75;exitDx=0;exitDy=0;entryX=1;entryY=0.5;entryDx=0;entryDy=0;" edge="1" parent="1">
          <mxGeometry width="50" height="50" relative="1" as="geometry">
            <mxPoint x="258" y="410.5" as="sourcePoint" />
            <mxPoint x="234" y="419" as="targetPoint" />
          </mxGeometry>
        </mxCell>
        <mxCell id="3QuLdcu_xD5159N9N08h-91" value="perdidas" style="ellipse;whiteSpace=wrap;html=1;" vertex="1" parent="1">
          <mxGeometry x="154" y="358" width="68" height="32.5" as="geometry" />
        </mxCell>
        <mxCell id="3QuLdcu_xD5159N9N08h-92" value="" style="endArrow=none;html=1;rounded=0;exitX=-0.033;exitY=0.138;exitDx=0;exitDy=0;exitPerimeter=0;entryX=1;entryY=0.5;entryDx=0;entryDy=0;" edge="1" parent="1" target="3QuLdcu_xD5159N9N08h-91">
          <mxGeometry width="50" height="50" relative="1" as="geometry">
            <mxPoint x="258.70000000000005" y="390.65999999999997" as="sourcePoint" />
            <mxPoint x="220" y="380" as="targetPoint" />
          </mxGeometry>
        </mxCell>
        <mxCell id="3QuLdcu_xD5159N9N08h-93" value="" style="endArrow=none;html=1;rounded=0;" edge="1" parent="1">
          <mxGeometry width="50" height="50" relative="1" as="geometry">
            <mxPoint x="269.3" y="380" as="sourcePoint" />
            <mxPoint x="228" y="344" as="targetPoint" />
          </mxGeometry>
        </mxCell>
        <mxCell id="3QuLdcu_xD5159N9N08h-96" value="id_operacion" style="ellipse;whiteSpace=wrap;html=1;" vertex="1" parent="1">
          <mxGeometry x="168" y="314" width="80" height="40" as="geometry" />
        </mxCell>
        <mxCell id="vOL8B1fKWGWSPSeHblaO-2" value="" style="endArrow=none;html=1;rounded=0;" edge="1" parent="1">
          <mxGeometry width="50" height="50" relative="1" as="geometry">
            <mxPoint x="603" y="90" as="sourcePoint" />
            <mxPoint x="610" y="70" as="targetPoint" />
          </mxGeometry>
        </mxCell>
        <mxCell id="vOL8B1fKWGWSPSeHblaO-1" value="Perfil&lt;span style=&quot;background-color: initial;&quot;&gt;_inversor&lt;/span&gt;" style="rounded=0;whiteSpace=wrap;html=1;" vertex="1" parent="1">
          <mxGeometry x="554" y="91" width="100.5" height="58" as="geometry" />
        </mxCell>
        <mxCell id="vOL8B1fKWGWSPSeHblaO-7" value="id_inversor" style="ellipse;whiteSpace=wrap;html=1;" vertex="1" parent="1">
          <mxGeometry x="584.5" y="31" width="70" height="40" as="geometry" />
        </mxCell>
        <mxCell id="vOL8B1fKWGWSPSeHblaO-8" value="" style="endArrow=none;html=1;rounded=0;" edge="1" parent="1">
          <mxGeometry width="50" height="50" relative="1" as="geometry">
            <mxPoint x="655" y="104" as="sourcePoint" />
            <mxPoint x="680" y="90" as="targetPoint" />
          </mxGeometry>
        </mxCell>
        <mxCell id="vOL8B1fKWGWSPSeHblaO-9" value="tipo_inversor" style="ellipse;whiteSpace=wrap;html=1;" vertex="1" parent="1">
          <mxGeometry x="679" y="61" width="80" height="49" as="geometry" />
        </mxCell>
        <mxCell id="vOL8B1fKWGWSPSeHblaO-11" value="tiene" style="rhombus;whiteSpace=wrap;html=1;" vertex="1" parent="1">
          <mxGeometry x="385" y="80" width="80" height="80" as="geometry" />
        </mxCell>
        <mxCell id="vOL8B1fKWGWSPSeHblaO-16" value="" style="endArrow=none;html=1;rounded=0;entryX=0;entryY=0.5;entryDx=0;entryDy=0;" edge="1" parent="1" target="vOL8B1fKWGWSPSeHblaO-11">
          <mxGeometry width="50" height="50" relative="1" as="geometry">
            <mxPoint x="285" y="119" as="sourcePoint" />
            <mxPoint x="374" y="119.5" as="targetPoint" />
          </mxGeometry>
        </mxCell>
        <mxCell id="vOL8B1fKWGWSPSeHblaO-17" value="" style="endArrow=none;html=1;rounded=0;entryX=0;entryY=0.5;entryDx=0;entryDy=0;exitX=1;exitY=0.5;exitDx=0;exitDy=0;" edge="1" parent="1" source="vOL8B1fKWGWSPSeHblaO-11">
          <mxGeometry width="50" height="50" relative="1" as="geometry">
            <mxPoint x="454" y="118" as="sourcePoint" />
            <mxPoint x="554" y="119" as="targetPoint" />
          </mxGeometry>
        </mxCell>
        <mxCell id="vOL8B1fKWGWSPSeHblaO-18" value="vive" style="rhombus;whiteSpace=wrap;html=1;" vertex="1" parent="1">
          <mxGeometry x="-59" y="85" width="70" height="70" as="geometry" />
        </mxCell>
        <mxCell id="vOL8B1fKWGWSPSeHblaO-19" value="" style="endArrow=none;html=1;rounded=0;entryX=-0.002;entryY=0.398;entryDx=0;entryDy=0;entryPerimeter=0;" edge="1" parent="1" target="JjuWW0wzElk63Nm9k67z-2">
          <mxGeometry width="50" height="50" relative="1" as="geometry">
            <mxPoint x="11" y="119" as="sourcePoint" />
            <mxPoint x="130" y="120" as="targetPoint" />
          </mxGeometry>
        </mxCell>
        <mxCell id="vOL8B1fKWGWSPSeHblaO-24" value="(1:N)" style="text;html=1;align=center;verticalAlign=middle;whiteSpace=wrap;rounded=0;" vertex="1" parent="1">
          <mxGeometry x="-171" y="91" width="60" height="30" as="geometry" />
        </mxCell>
        <mxCell id="vOL8B1fKWGWSPSeHblaO-27" value="" style="endArrow=none;html=1;rounded=0;" edge="1" parent="1">
          <mxGeometry width="50" height="50" relative="1" as="geometry">
            <mxPoint x="305" y="220" as="sourcePoint" />
            <mxPoint x="305" y="140" as="targetPoint" />
          </mxGeometry>
        </mxCell>
        <mxCell id="vOL8B1fKWGWSPSeHblaO-29" value="posee" style="rhombus;whiteSpace=wrap;html=1;" vertex="1" parent="1">
          <mxGeometry x="265" y="219.5" width="80" height="80" as="geometry" />
        </mxCell>
        <mxCell id="vOL8B1fKWGWSPSeHblaO-30" value="" style="endArrow=none;html=1;rounded=0;" edge="1" parent="1">
          <mxGeometry width="50" height="50" relative="1" as="geometry">
            <mxPoint x="305" y="380" as="sourcePoint" />
            <mxPoint x="305" y="300" as="targetPoint" />
          </mxGeometry>
        </mxCell>
        <mxCell id="vOL8B1fKWGWSPSeHblaO-31" value="(1:1)" style="text;html=1;align=center;verticalAlign=middle;whiteSpace=wrap;rounded=0;" vertex="1" parent="1">
          <mxGeometry x="258" y="338" width="60" height="30" as="geometry" />
        </mxCell>
        <mxCell id="xsgmEXFNL17CNd2PpXDW-1" value="Operaciones" style="rounded=0;whiteSpace=wrap;html=1;" vertex="1" parent="1">
          <mxGeometry x="625.5" y="380" width="90" height="50" as="geometry" />
        </mxCell>
        <mxCell id="xsgmEXFNL17CNd2PpXDW-3" value="" style="endArrow=classic;html=1;rounded=0;exitX=0;exitY=0.5;exitDx=0;exitDy=0;" edge="1" parent="1" source="xsgmEXFNL17CNd2PpXDW-1">
          <mxGeometry width="50" height="50" relative="1" as="geometry">
            <mxPoint x="617" y="408.12" as="sourcePoint" />
            <mxPoint x="355" y="405.88" as="targetPoint" />
          </mxGeometry>
        </mxCell>
        <mxCell id="xsgmEXFNL17CNd2PpXDW-4" value="gestiona" style="rhombus;whiteSpace=wrap;html=1;direction=south;" vertex="1" parent="1">
          <mxGeometry x="457" y="365" width="83" height="81" as="geometry" />
        </mxCell>
        <mxCell id="xsgmEXFNL17CNd2PpXDW-5" value="" style="endArrow=none;html=1;rounded=0;" edge="1" parent="1" target="xsgmEXFNL17CNd2PpXDW-6">
          <mxGeometry width="50" height="50" relative="1" as="geometry">
            <mxPoint x="655.5" y="380" as="sourcePoint" />
            <mxPoint x="702.5" y="324" as="targetPoint" />
            <Array as="points">
              <mxPoint x="655.5" y="370" />
            </Array>
          </mxGeometry>
        </mxCell>
        <mxCell id="xsgmEXFNL17CNd2PpXDW-6" value="id_operacion" style="ellipse;whiteSpace=wrap;html=1;" vertex="1" parent="1">
          <mxGeometry x="615.5" y="330" width="80" height="30" as="geometry" />
        </mxCell>
        <mxCell id="xsgmEXFNL17CNd2PpXDW-10" value="" style="endArrow=none;html=1;rounded=0;exitX=1;exitY=0.25;exitDx=0;exitDy=0;" edge="1" parent="1">
          <mxGeometry width="50" height="50" relative="1" as="geometry">
            <mxPoint x="698.5" y="380" as="sourcePoint" />
            <mxPoint x="711.5" y="362" as="targetPoint" />
          </mxGeometry>
        </mxCell>
        <mxCell id="xsgmEXFNL17CNd2PpXDW-11" value="tipo_&lt;div&gt;operacion&lt;/div&gt;" style="ellipse;whiteSpace=wrap;html=1;" vertex="1" parent="1">
          <mxGeometry x="699.5" y="332" width="83" height="36" as="geometry" />
        </mxCell>
        <mxCell id="xsgmEXFNL17CNd2PpXDW-12" value="" style="endArrow=none;html=1;rounded=0;" edge="1" parent="1">
          <mxGeometry width="50" height="50" relative="1" as="geometry">
            <mxPoint x="738.5" y="387" as="sourcePoint" />
            <mxPoint x="715.5013211559876" y="387.22709741214874" as="targetPoint" />
          </mxGeometry>
        </mxCell>
        <mxCell id="xsgmEXFNL17CNd2PpXDW-13" value="precio_&lt;div&gt;operacion&lt;/div&gt;" style="ellipse;whiteSpace=wrap;html=1;" vertex="1" parent="1">
          <mxGeometry x="735.5" y="372" width="83" height="40" as="geometry" />
        </mxCell>
        <mxCell id="xsgmEXFNL17CNd2PpXDW-14" value="" style="endArrow=none;html=1;rounded=0;" edge="1" parent="1">
          <mxGeometry width="50" height="50" relative="1" as="geometry">
            <mxPoint x="738.5" y="429.52" as="sourcePoint" />
            <mxPoint x="715.5013211559876" y="429.7470974121487" as="targetPoint" />
          </mxGeometry>
        </mxCell>
        <mxCell id="xsgmEXFNL17CNd2PpXDW-15" value="fecha" style="ellipse;whiteSpace=wrap;html=1;" vertex="1" parent="1">
          <mxGeometry x="736" y="414" width="49.5" height="28" as="geometry" />
        </mxCell>
        <mxCell id="xsgmEXFNL17CNd2PpXDW-16" value="" style="endArrow=none;html=1;rounded=0;exitX=1;exitY=0.75;exitDx=0;exitDy=0;" edge="1" parent="1">
          <mxGeometry width="50" height="50" relative="1" as="geometry">
            <mxPoint x="705.5" y="429.9999999999999" as="sourcePoint" />
            <mxPoint x="727.5" y="456.5" as="targetPoint" />
            <Array as="points">
              <mxPoint x="727.5" y="456.5" />
            </Array>
          </mxGeometry>
        </mxCell>
        <mxCell id="xsgmEXFNL17CNd2PpXDW-17" value="id_inversor" style="ellipse;whiteSpace=wrap;html=1;" vertex="1" parent="1">
          <mxGeometry x="720.75" y="446" width="67.75" height="32" as="geometry" />
        </mxCell>
        <mxCell id="xsgmEXFNL17CNd2PpXDW-19" value="" style="endArrow=none;html=1;rounded=0;" edge="1" parent="1">
          <mxGeometry width="50" height="50" relative="1" as="geometry">
            <mxPoint x="637" y="430" as="sourcePoint" />
            <mxPoint x="637.6600000000001" y="457" as="targetPoint" />
          </mxGeometry>
        </mxCell>
        <mxCell id="xsgmEXFNL17CNd2PpXDW-20" value="id_accion" style="ellipse;whiteSpace=wrap;html=1;" vertex="1" parent="1">
          <mxGeometry x="603.38" y="457" width="63.38" height="24" as="geometry" />
        </mxCell>
        <mxCell id="xsgmEXFNL17CNd2PpXDW-21" value="" style="endArrow=none;html=1;rounded=0;" edge="1" parent="1">
          <mxGeometry width="50" height="50" relative="1" as="geometry">
            <mxPoint x="596" y="440" as="sourcePoint" />
            <mxPoint x="625.5" y="420" as="targetPoint" />
          </mxGeometry>
        </mxCell>
        <mxCell id="xsgmEXFNL17CNd2PpXDW-22" value="comision" style="ellipse;whiteSpace=wrap;html=1;" vertex="1" parent="1">
          <mxGeometry x="540" y="433" width="63.38" height="24" as="geometry" />
        </mxCell>
        <mxCell id="xsgmEXFNL17CNd2PpXDW-23" value="" style="endArrow=none;html=1;rounded=0;" edge="1" parent="1">
          <mxGeometry width="50" height="50" relative="1" as="geometry">
            <mxPoint x="684" y="520" as="sourcePoint" />
            <mxPoint x="683.5" y="430" as="targetPoint" />
          </mxGeometry>
        </mxCell>
        <mxCell id="xsgmEXFNL17CNd2PpXDW-24" value="administra" style="rhombus;whiteSpace=wrap;html=1;direction=south;" vertex="1" parent="1">
          <mxGeometry x="642.5" y="513" width="83" height="81" as="geometry" />
        </mxCell>
        <mxCell id="xsgmEXFNL17CNd2PpXDW-25" value="" style="endArrow=none;html=1;rounded=0;exitX=0.632;exitY=0.014;exitDx=0;exitDy=0;exitPerimeter=0;" edge="1" parent="1" source="3QuLdcu_xD5159N9N08h-21">
          <mxGeometry width="50" height="50" relative="1" as="geometry">
            <mxPoint x="683.66" y="654" as="sourcePoint" />
            <mxPoint x="683.66" y="594" as="targetPoint" />
          </mxGeometry>
        </mxCell>
        <mxCell id="xsgmEXFNL17CNd2PpXDW-26" value="(1:n)" style="text;html=1;align=center;verticalAlign=middle;whiteSpace=wrap;rounded=0;" vertex="1" parent="1">
          <mxGeometry x="635.5" y="654" width="60" height="30" as="geometry" />
        </mxCell>
        <mxCell id="eu-0C_JwrXTg80yrjLSE-2" value="" style="endArrow=none;html=1;rounded=0;" edge="1" parent="1" source="3QuLdcu_xD5159N9N08h-4">
          <mxGeometry width="50" height="50" relative="1" as="geometry">
            <mxPoint x="-160" y="168.5" as="sourcePoint" />
            <mxPoint x="-60" y="120" as="targetPoint" />
          </mxGeometry>
        </mxCell>
        <mxCell id="eu-0C_JwrXTg80yrjLSE-3" value="" style="endArrow=none;html=1;rounded=0;" edge="1" parent="1">
          <mxGeometry width="50" height="50" relative="1" as="geometry">
            <mxPoint x="-204" y="89" as="sourcePoint" />
            <mxPoint x="-204" y="49" as="targetPoint" />
          </mxGeometry>
        </mxCell>
        <mxCell id="eu-0C_JwrXTg80yrjLSE-4" value="contiene" style="rhombus;whiteSpace=wrap;html=1;" vertex="1" parent="1">
          <mxGeometry x="-241" y="178.5" width="70" height="70" as="geometry" />
        </mxCell>
        <mxCell id="eu-0C_JwrXTg80yrjLSE-5" value="Localidad" style="rounded=0;whiteSpace=wrap;html=1;" vertex="1" parent="1">
          <mxGeometry x="-250" y="278" width="90" height="60" as="geometry" />
        </mxCell>
        <mxCell id="eu-0C_JwrXTg80yrjLSE-6" value="" style="endArrow=none;html=1;rounded=0;" edge="1" parent="1">
          <mxGeometry width="50" height="50" relative="1" as="geometry">
            <mxPoint x="-206.5" y="278.5" as="sourcePoint" />
            <mxPoint x="-206.5" y="248.5" as="targetPoint" />
          </mxGeometry>
        </mxCell>
        <mxCell id="eu-0C_JwrXTg80yrjLSE-7" value="id_localidad" style="ellipse;whiteSpace=wrap;html=1;" vertex="1" parent="1">
          <mxGeometry x="-249" y="379.5" width="80" height="40" as="geometry" />
        </mxCell>
        <mxCell id="eu-0C_JwrXTg80yrjLSE-8" value="" style="endArrow=none;html=1;rounded=0;" edge="1" parent="1">
          <mxGeometry width="50" height="50" relative="1" as="geometry">
            <mxPoint x="-206.5" y="379" as="sourcePoint" />
            <mxPoint x="-206.5" y="339" as="targetPoint" />
          </mxGeometry>
        </mxCell>
        <mxCell id="eu-0C_JwrXTg80yrjLSE-9" value="" style="endArrow=none;html=1;rounded=0;exitX=0;exitY=0.25;exitDx=0;exitDy=0;" edge="1" parent="1">
          <mxGeometry width="50" height="50" relative="1" as="geometry">
            <mxPoint x="-249" y="307.5" as="sourcePoint" />
            <mxPoint x="-283.5" y="310" as="targetPoint" />
          </mxGeometry>
        </mxCell>
        <mxCell id="eu-0C_JwrXTg80yrjLSE-10" value="nombre_localidad" style="ellipse;whiteSpace=wrap;html=1;" vertex="1" parent="1">
          <mxGeometry x="-389" y="292" width="110" height="40" as="geometry" />
        </mxCell>
        <mxCell id="eu-0C_JwrXTg80yrjLSE-11" value="" style="endArrow=none;html=1;rounded=0;exitX=0;exitY=1;exitDx=0;exitDy=0;" edge="1" parent="1">
          <mxGeometry width="50" height="50" relative="1" as="geometry">
            <mxPoint x="135" y="155" as="sourcePoint" />
            <mxPoint x="100" y="170" as="targetPoint" />
          </mxGeometry>
        </mxCell>
        <mxCell id="eu-0C_JwrXTg80yrjLSE-12" value="calle" style="ellipse;whiteSpace=wrap;html=1;strokeColor=#000000;" vertex="1" parent="1">
          <mxGeometry x="60" y="168.5" width="60" height="31.5" as="geometry" />
        </mxCell>
        <mxCell id="eu-0C_JwrXTg80yrjLSE-13" value="" style="endArrow=none;html=1;rounded=0;exitX=0;exitY=1;exitDx=0;exitDy=0;" edge="1" parent="1">
          <mxGeometry width="50" height="50" relative="1" as="geometry">
            <mxPoint x="145" y="159.5" as="sourcePoint" />
            <mxPoint x="140" y="194.5" as="targetPoint" />
          </mxGeometry>
        </mxCell>
        <mxCell id="eu-0C_JwrXTg80yrjLSE-14" value="numero_&lt;div&gt;calle&lt;/div&gt;" style="ellipse;whiteSpace=wrap;html=1;strokeColor=#000000;" vertex="1" parent="1">
          <mxGeometry x="110" y="188" width="70" height="42" as="geometry" />
        </mxCell>
        <mxCell id="eu-0C_JwrXTg80yrjLSE-15" value="" style="endArrow=none;html=1;rounded=0;" edge="1" parent="1">
          <mxGeometry width="50" height="50" relative="1" as="geometry">
            <mxPoint x="278" y="88.5" as="sourcePoint" />
            <mxPoint x="317" y="60.5" as="targetPoint" />
          </mxGeometry>
        </mxCell>
        <mxCell id="eu-0C_JwrXTg80yrjLSE-16" value="contraseña" style="ellipse;whiteSpace=wrap;html=1;strokeColor=#000000;" vertex="1" parent="1">
          <mxGeometry x="306" y="28.5" width="84" height="42.5" as="geometry" />
        </mxCell>
        <mxCell id="eu-0C_JwrXTg80yrjLSE-17" value="email" style="ellipse;whiteSpace=wrap;html=1;strokeColor=#000000;" vertex="1" parent="1">
          <mxGeometry x="290" y="-34.5" width="84" height="42.5" as="geometry" />
        </mxCell>
        <mxCell id="eu-0C_JwrXTg80yrjLSE-18" value="" style="endArrow=none;html=1;rounded=0;" edge="1" parent="1">
          <mxGeometry width="50" height="50" relative="1" as="geometry">
            <mxPoint x="255" y="88" as="sourcePoint" />
            <mxPoint x="300" as="targetPoint" />
          </mxGeometry>
        </mxCell>
        <mxCell id="eu-0C_JwrXTg80yrjLSE-19" value="(1:N)" style="text;html=1;align=center;verticalAlign=middle;whiteSpace=wrap;rounded=0;" vertex="1" parent="1">
          <mxGeometry x="-210" y="248.5" width="60" height="30" as="geometry" />
        </mxCell>
        <mxCell id="eu-0C_JwrXTg80yrjLSE-20" value="(1:N)" style="text;html=1;align=center;verticalAlign=middle;whiteSpace=wrap;rounded=0;" vertex="1" parent="1">
          <mxGeometry x="500.5" y="89.5" width="60" height="30" as="geometry" />
        </mxCell>
        <mxCell id="eu-0C_JwrXTg80yrjLSE-21" value="(1:N)" style="text;html=1;align=center;verticalAlign=middle;whiteSpace=wrap;rounded=0;" vertex="1" parent="1">
          <mxGeometry x="565.5" y="377" width="60" height="30" as="geometry" />
        </mxCell>
      </root>
    </mxGraphModel>
  </diagram>
</mxfile>
